<svg xmlns="http://www.w3.org/2000/svg" xmlns:xlink="http://www.w3.org/1999/xlink" width="100" height="100" viewBox="0 0 100 100"><g><g transform="translate(50 50) scale(0.69 0.69) rotate(0) translate(-50 -50)" style="fill:#000000"><svg fill="#000000" xmlns:dc="http://purl.org/dc/elements/1.1/" xmlns:cc="http://creativecommons.org/ns#" xmlns:rdf="http://www.w3.org/1999/02/22-rdf-syntax-ns#" xmlns:svg="http://www.w3.org/2000/svg" xmlns="http://www.w3.org/2000/svg" xmlns:sodipodi="http://sodipodi.sourceforge.net/DTD/sodipodi-0.dtd" xmlns:inkscape="http://www.inkscape.org/namespaces/inkscape" viewBox="0 0 32 32" version="1.1" x="0px" y="0px"><g transform="translate(0,-1020.3622)"><path style="color:#000000;font-style:normal;font-variant:normal;font-weight:normal;font-stretch:normal;font-size:medium;line-height:normal;font-family:sans-serif;text-indent:0;text-align:start;text-decoration:none;text-decoration-line:none;text-decoration-style:solid;text-decoration-color:#000000;letter-spacing:normal;word-spacing:normal;text-transform:none;direction:ltr;block-progression:tb;writing-mode:lr-tb;baseline-shift:baseline;text-anchor:start;white-space:normal;clip-rule:nonzero;display:inline;overflow:visible;visibility:visible;opacity:1;isolation:auto;mix-blend-mode:normal;color-interpolation:sRGB;color-interpolation-filters:linearRGB;solid-color:#000000;solid-opacity:1;fill:#000000;fill-opacity:1;fill-rule:evenodd;stroke:none;stroke-width:1px;stroke-linecap:butt;stroke-linejoin:miter;stroke-miterlimit:4;stroke-dasharray:none;stroke-dashoffset:0;stroke-opacity:1;color-rendering:auto;image-rendering:auto;shape-rendering:auto;text-rendering:auto;enable-background:accumulate" d="m 19.115022,1020.7773 c -1.120986,-0.043 -1.989614,0.7493 -2.611219,1.3926 -0.673855,0.6974 -1.025695,1.6044 -1.263619,2.4453 -0.368285,1.3016 -0.369128,2.652 -0.316393,3.9278 0.06447,1.5597 0.707001,4.3554 0.707001,4.3554 l 0.97457,-0.2187 c 0,0 -0.627047,-2.8594 -0.681613,-4.1797 -0.05142,-1.244 -0.03905,-2.4883 0.279285,-3.6133 0.217226,-0.7678 0.531441,-1.5164 1.019489,-2.0215 0.561935,-0.5815 1.274117,-1.11 1.855392,-1.0879 0.696463,0.026 1.543968,0.6227 1.915936,1.2832 0.30714,0.5454 0.177733,1.426 0.04102,2.3086 -0.156338,1.0092 -0.644066,2.0063 -1.105422,3.0489 -0.633212,1.4309 -2.277249,4.289 -2.277249,4.289 l 0.865198,0.5 c 0,0 1.635059,-2.8213 2.326075,-4.3828 0.449057,-1.0148 0.991572,-2.0887 1.179639,-3.3027 0.131863,-0.8513 0.395629,-1.9678 -0.158197,-2.9512 -0.541997,-0.9625 -1.584542,-1.7491 -2.749886,-1.793 z"></path><path style="color:#000000;font-style:normal;font-variant:normal;font-weight:normal;font-stretch:normal;font-size:medium;line-height:normal;font-family:sans-serif;text-indent:0;text-align:start;text-decoration:none;text-decoration-line:none;text-decoration-style:solid;text-decoration-color:#000000;letter-spacing:normal;word-spacing:normal;text-transform:none;direction:ltr;block-progression:tb;writing-mode:lr-tb;baseline-shift:baseline;text-anchor:start;white-space:normal;clip-rule:nonzero;display:inline;overflow:visible;visibility:visible;opacity:1;isolation:auto;mix-blend-mode:normal;color-interpolation:sRGB;color-interpolation-filters:linearRGB;solid-color:#000000;solid-opacity:1;fill:#000000;fill-opacity:1;fill-rule:evenodd;stroke:none;stroke-width:1px;stroke-linecap:butt;stroke-linejoin:miter;stroke-miterlimit:4;stroke-dasharray:none;stroke-dashoffset:0;stroke-opacity:1;color-rendering:auto;image-rendering:auto;shape-rendering:auto;text-rendering:auto;enable-background:accumulate" d="m 26.296364,1025.9629 c -0.459787,0.097 -0.888348,0.2709 -1.259713,0.4004 -0.85703,0.299 -1.602098,0.7999 -2.273343,1.3164 -1.082017,0.8326 -2.013121,1.8305 -2.861209,2.8555 -0.686373,0.8294 -1.697195,2.4941 -1.697195,2.4941 l 0.853481,0.5234 c 0,0 1.048912,-1.6965 1.615166,-2.3808 0.822289,-0.9938 1.704383,-1.9358 2.699107,-2.7012 0.633063,-0.4871 1.297016,-0.9209 1.994058,-1.1641 0.772859,-0.2695 1.534436,-0.5241 2.056554,-0.3457 0.442639,0.1513 0.915509,0.6263 1.015583,1.0352 0.118805,0.4854 -0.184378,1.1934 -0.576148,1.7891 -0.26909,0.409 -0.788948,0.7355 -1.343694,1.0957 -0.890231,0.5778 -1.916168,0.9985 -2.954955,1.4492 -1.307347,0.567 -4.099438,1.5508 -4.099438,1.5508 l 0.332017,0.9433 c 0,0 2.769159,-0.9712 4.163889,-1.5762 1.024826,-0.4445 2.105009,-0.8805 3.101433,-1.5273 0.529085,-0.3435 1.193792,-0.7165 1.634698,-1.3867 0.442394,-0.6726 0.954902,-1.5874 0.712861,-2.5762 -0.20585,-0.8411 -0.888654,-1.4792 -1.663993,-1.7441 -0.498392,-0.1703 -0.989372,-0.1481 -1.449159,-0.051 z"></path><path style="color:#000000;font-style:normal;font-variant:normal;font-weight:normal;font-stretch:normal;font-size:medium;line-height:normal;font-family:sans-serif;text-indent:0;text-align:start;text-decoration:none;text-decoration-line:none;text-decoration-style:solid;text-decoration-color:#000000;letter-spacing:normal;word-spacing:normal;text-transform:none;direction:ltr;block-progression:tb;writing-mode:lr-tb;baseline-shift:baseline;text-anchor:start;white-space:normal;clip-rule:nonzero;display:inline;overflow:visible;visibility:visible;opacity:1;isolation:auto;mix-blend-mode:normal;color-interpolation:sRGB;color-interpolation-filters:linearRGB;solid-color:#000000;solid-opacity:1;fill:#000000;fill-opacity:1;fill-rule:evenodd;stroke:none;stroke-width:1px;stroke-linecap:butt;stroke-linejoin:miter;stroke-miterlimit:4;stroke-dasharray:none;stroke-dashoffset:0;stroke-opacity:1;color-rendering:auto;image-rendering:auto;shape-rendering:auto;text-rendering:auto;enable-background:accumulate" d="m 26.546354,1033.2422 c -0.724561,0.072 -1.430507,0.1985 -2.107334,0.291 -1.631103,0.2229 -4.659962,1.0039 -4.659962,1.0039 l 0.248036,0.9688 c 0,0 3.066948,-0.7783 4.546686,-0.9805 l 0.002,0 c 1.405281,-0.1921 2.772046,-0.4733 4.013505,-0.252 0.838157,0.1494 1.688737,0.3796 2.081944,0.8653 0.280943,0.347 0.378342,0.9944 0.291004,1.541 -0.107984,0.6757 -0.484001,1.3954 -0.988241,1.7558 -0.544864,0.3896 -1.425144,0.4593 -2.257718,0.4043 -1.674368,-0.1104 -3.308482,-1.0228 -5.064242,-1.7031 -0.782321,-0.303 -2.398338,-1.0664 -2.398338,-1.0664 l -0.427716,0.9043 c 0,0 1.5929,0.756 2.464741,1.0938 1.659289,0.6429 3.380837,1.6389 5.361105,1.7695 0.915919,0.06 2.023726,0.042 2.904176,-0.5879 0.797822,-0.5703 1.249925,-1.5076 1.394473,-2.4121 0.120488,-0.754 0.04588,-1.6514 -0.501932,-2.3281 l 0,0 c -0.697447,-0.8615 -1.814803,-1.0639 -2.683483,-1.2187 -0.749957,-0.1338 -1.494096,-0.1184 -2.218657,-0.047 z"></path><path style="color:#000000;font-style:normal;font-variant:normal;font-weight:normal;font-stretch:normal;font-size:medium;line-height:normal;font-family:sans-serif;text-indent:0;text-align:start;text-decoration:none;text-decoration-line:none;text-decoration-style:solid;text-decoration-color:#000000;letter-spacing:normal;word-spacing:normal;text-transform:none;direction:ltr;block-progression:tb;writing-mode:lr-tb;baseline-shift:baseline;text-anchor:start;white-space:normal;clip-rule:nonzero;display:inline;overflow:visible;visibility:visible;opacity:1;isolation:auto;mix-blend-mode:normal;color-interpolation:sRGB;color-interpolation-filters:linearRGB;solid-color:#000000;solid-opacity:1;fill:#000000;fill-opacity:1;fill-rule:evenodd;stroke:none;stroke-width:1px;stroke-linecap:butt;stroke-linejoin:miter;stroke-miterlimit:4;stroke-dasharray:none;stroke-dashoffset:0;stroke-opacity:1;color-rendering:auto;image-rendering:auto;shape-rendering:auto;text-rendering:auto;enable-background:accumulate" d="m 9.3302738,1022.8145 c -0.8328229,-0.103 -1.7436382,0.131 -2.3866194,0.7246 -0.6401753,0.591 -0.7486528,1.4396 -0.849574,2.0761 -0.1450273,0.9148 -0.1792622,1.9365 0.1738209,2.8828 0.4705738,1.2615 1.4579824,2.1779 2.3026385,3.0098 1.5150402,1.4921 4.8630792,3.6426 4.8630792,3.6426 l 0.542945,-0.8399 c 0,0 -3.382279,-2.213 -4.7048815,-3.5156 -0.8527885,-0.8399 -1.704261,-1.6759 -2.0663203,-2.6465 -0.2607565,-0.6988 -0.2529799,-1.5573 -0.1230418,-2.3769 0.099157,-0.6255 0.2402045,-1.2221 0.5390402,-1.4981 0.372237,-0.3436 1.047193,-0.5314 1.5858714,-0.4648 0.812528,0.1004 1.656666,0.6858 2.269436,1.373 0.850255,0.9536 1.192378,2.3943 1.68743,3.8028 0.47602,1.3544 1.124953,4.3554 1.124953,4.3554 l 0.978475,-0.2089 c 0,0 -0.627789,-2.962 -1.160107,-4.4766 -0.467251,-1.3294 -0.80326,-2.9239 -1.884688,-4.1367 -0.720261,-0.8078 -1.716793,-1.5578 -2.8924572,-1.7031 z"></path><path style="color:#000000;font-style:normal;font-variant:normal;font-weight:normal;font-stretch:normal;font-size:medium;line-height:normal;font-family:sans-serif;text-indent:0;text-align:start;text-decoration:none;text-decoration-line:none;text-decoration-style:solid;text-decoration-color:#000000;letter-spacing:normal;word-spacing:normal;text-transform:none;direction:ltr;block-progression:tb;writing-mode:lr-tb;baseline-shift:baseline;text-anchor:start;white-space:normal;clip-rule:nonzero;display:inline;overflow:visible;visibility:visible;opacity:1;isolation:auto;mix-blend-mode:normal;color-interpolation:sRGB;color-interpolation-filters:linearRGB;solid-color:#000000;solid-opacity:1;fill:#000000;fill-opacity:1;fill-rule:evenodd;stroke:none;stroke-width:1px;stroke-linecap:butt;stroke-linejoin:miter;stroke-miterlimit:4;stroke-dasharray:none;stroke-dashoffset:0;stroke-opacity:1;color-rendering:auto;image-rendering:auto;shape-rendering:auto;text-rendering:auto;enable-background:accumulate" d="m 5.2015395,1032.9336 c -0.9798686,-0.01 -2.1719881,-0.118 -3.2225222,0.459 -0.7276793,0.3999 -1.20236149,1.0952 -1.5057966,1.7715 -0.28797512,0.6419 -0.72177755,1.5648 -0.29295655,2.457 0.47415901,0.9863 1.59056845,1.2427 2.35146455,1.4551 1.2015738,0.3354 2.4157074,0.1553 3.5018073,0.066 1.8227991,-0.1499 3.5547983,-0.6348 5.2615,-0.9492 0.80824,-0.1489 2.415915,-0.4532 2.415915,-0.4532 l -0.185539,-0.9824 c 0,0 -1.610202,0.3054 -2.41201,0.4531 -1.765869,0.3254 -3.4655108,0.7961 -5.1618938,0.9356 -1.1238325,0.092 -2.2161139,0.2276 -3.1502595,-0.033 -0.7533176,-0.2103 -1.5119305,-0.4957 -1.7186785,-0.9258 -0.16506831,-0.3434 0.029562,-1.0044 0.3027218,-1.6133 0.2444746,-0.5449 0.6305867,-1.0598 1.0761271,-1.3047 0.7040504,-0.3866 1.7094882,-0.3461 2.7323082,-0.3359 l 0.00195,0 c 1.209619,0.01 2.4311175,0.1788 3.5818822,0.5254 1.4747975,0.444 4.4783285,2.1094 4.4783285,2.1094 l 0.488262,-0.8731 c 0,0 -2.924326,-1.6649 -4.6794932,-2.1933 -1.250442,-0.3767 -2.5630415,-0.5597 -3.8611673,-0.5684 l -0.00195,0 z"></path><path style="color:#000000;font-style:normal;font-variant:normal;font-weight:normal;font-stretch:normal;font-size:medium;line-height:normal;font-family:sans-serif;text-indent:0;text-align:start;text-decoration:none;text-decoration-line:none;text-decoration-style:solid;text-decoration-color:#000000;letter-spacing:normal;word-spacing:normal;text-transform:none;direction:ltr;block-progression:tb;writing-mode:lr-tb;baseline-shift:baseline;text-anchor:start;white-space:normal;clip-rule:nonzero;display:inline;overflow:visible;visibility:visible;opacity:1;isolation:auto;mix-blend-mode:normal;color-interpolation:sRGB;color-interpolation-filters:linearRGB;solid-color:#000000;solid-opacity:1;fill:#000000;fill-opacity:1;fill-rule:evenodd;stroke:none;stroke-width:1px;stroke-linecap:butt;stroke-linejoin:miter;stroke-miterlimit:4;stroke-dasharray:none;stroke-dashoffset:0;stroke-opacity:1;color-rendering:auto;image-rendering:auto;shape-rendering:auto;text-rendering:auto;enable-background:accumulate" d="m 13.660171,1037.4277 c 0,0 -3.7627981,0.9562 -5.6403896,1.8028 -1.2488331,0.5629 -2.6954043,1.1116 -3.7361725,2.2519 -0.6562801,0.719 -1.155833,1.6555 -1.2694784,2.6621 -0.068831,0.6098 -0.013079,1.3456 0.4589652,1.9141 0.7176487,0.8642 1.8647784,1.2378 2.8983169,1.2734 1.1059328,0.039 2.1604446,-0.4356 2.9920629,-1.039 1.2258825,-0.8895 1.8092105,-2.2666 2.5448155,-3.2871 0.972063,-1.3486 2.759651,-4.0743 2.759651,-4.0743 l -0.796841,-0.5234 c 3.81e-4,-10e-5 0.03906,-0.012 0.03906,-0.012 l -0.24999,-0.9688 z m 0.138667,1.0039 c -0.04263,0.065 -1.776245,2.7026 -2.703013,3.9883 -0.823745,1.1429 -1.3874536,2.3877 -2.3202156,3.0645 -0.7014648,0.509 -1.5817618,0.8751 -2.369042,0.8476 -0.8033757,-0.028 -1.7076852,-0.3626 -2.1639724,-0.9121 -0.1996668,-0.2405 -0.2854197,-0.7271 -0.2363183,-1.1621 0.083878,-0.743 0.4846876,-1.5199 1.0155827,-2.1016 0.8297429,-0.909 2.1290505,-1.4362 3.4100143,-2.0136 1.6350403,-0.7372 5.2178113,-1.672 5.3669643,-1.711 z"></path><path style="color:#000000;font-style:normal;font-variant:normal;font-weight:normal;font-stretch:normal;font-size:medium;line-height:normal;font-family:sans-serif;text-indent:0;text-align:start;text-decoration:none;text-decoration-line:none;text-decoration-style:solid;text-decoration-color:#000000;letter-spacing:normal;word-spacing:normal;text-transform:none;direction:ltr;block-progression:tb;writing-mode:lr-tb;baseline-shift:baseline;text-anchor:start;white-space:normal;clip-rule:nonzero;display:inline;overflow:visible;visibility:visible;opacity:1;isolation:auto;mix-blend-mode:normal;color-interpolation:sRGB;color-interpolation-filters:linearRGB;solid-color:#000000;solid-opacity:1;fill:#000000;fill-opacity:1;fill-rule:evenodd;stroke:none;stroke-width:1px;stroke-linecap:butt;stroke-linejoin:miter;stroke-miterlimit:4;stroke-dasharray:none;stroke-dashoffset:0;stroke-opacity:1;color-rendering:auto;image-rendering:auto;shape-rendering:auto;text-rendering:auto;enable-background:accumulate" d="m 14.712862,1038.709 c 0,0 -2.819966,4.0978 -3.775233,6.5527 -0.391791,1.007 -0.798785,2.1357 -0.728486,3.336 0.04745,0.8102 0.225533,1.7608 0.880823,2.4492 0.578293,0.6073 1.411201,0.874 2.183503,0.8984 1.049154,0.033 2.226016,-0.2474 3.042842,-1.0312 0.906716,-0.8701 1.067212,-2.15 1.23823,-3.1563 0.233388,-1.3732 -0.02475,-2.7036 -0.09375,-3.9316 -0.08977,-1.5979 -0.406234,-4.7168 -0.406233,-4.7168 l -0.996053,0.1015 c 0,0 0.317894,3.1342 0.404281,4.6719 0.07394,1.316 0.299005,2.5702 0.105463,3.709 -0.172814,1.0169 -0.371174,2.0487 -0.945272,2.5996 -0.541984,0.5201 -1.484748,0.7824 -2.318263,0.7559 -0.548221,-0.017 -1.15766,-0.2406 -1.490173,-0.5899 -0.38364,-0.403 -0.56677,-1.1246 -0.607397,-1.8183 -0.05453,-0.931 0.279659,-1.9332 0.662083,-2.9161 0.8452,-2.172 3.669769,-6.3496 3.669768,-6.3496 l -0.826137,-0.5644 z"></path><path style="color:#000000;font-style:normal;font-variant:normal;font-weight:normal;font-stretch:normal;font-size:medium;line-height:normal;font-family:sans-serif;text-indent:0;text-align:start;text-decoration:none;text-decoration-line:none;text-decoration-style:solid;text-decoration-color:#000000;letter-spacing:normal;word-spacing:normal;text-transform:none;direction:ltr;block-progression:tb;writing-mode:lr-tb;baseline-shift:baseline;text-anchor:start;white-space:normal;clip-rule:nonzero;display:inline;overflow:visible;visibility:visible;opacity:1;isolation:auto;mix-blend-mode:normal;color-interpolation:sRGB;color-interpolation-filters:linearRGB;solid-color:#000000;solid-opacity:1;fill:#000000;fill-opacity:1;fill-rule:evenodd;stroke:none;stroke-width:1px;stroke-linecap:butt;stroke-linejoin:miter;stroke-miterlimit:4;stroke-dasharray:none;stroke-dashoffset:0;stroke-opacity:1;color-rendering:auto;image-rendering:auto;shape-rendering:auto;text-rendering:auto;enable-background:accumulate" d="m 18.675588,1038.3105 -0.746062,0.6661 c 0,0 1.714065,1.9222 2.583876,2.8808 1.349852,1.4877 3.0468,2.556 3.790858,4.0996 0.181316,0.3762 0.366951,0.7945 0.455059,1.17 0.08811,0.3754 0.07646,0.6772 -0.04687,0.9042 -0.261056,0.4806 -1.175182,0.8299 -1.859297,0.7833 -0.627451,-0.043 -1.306499,-0.627 -1.912031,-1.2422 -0.801435,-0.8143 -1.349858,-1.9295 -1.830002,-3.0684 -0.70269,-1.6667 -1.458923,-5.5566 -1.458923,-5.5566 l -0.982381,0.1875 c 0,0 0.707131,3.831 1.519468,5.7578 0.494077,1.1719 1.083048,2.4077 2.040931,3.3808 0.624561,0.6346 1.432247,1.4606 2.55458,1.5371 1.015422,0.069 2.254617,-0.2849 2.806525,-1.3007 0.2843,-0.5234 0.260275,-1.1014 0.140619,-1.6114 -0.119656,-0.5099 -0.3359,-0.9819 -0.525369,-1.375 -0.913163,-1.8944 -2.737984,-2.9988 -3.952961,-4.3379 -0.86203,-0.95 -2.578017,-2.875 -2.578017,-2.875 z"></path><path style="color:#000000;font-style:normal;font-variant:normal;font-weight:normal;font-stretch:normal;font-size:medium;line-height:normal;font-family:sans-serif;text-indent:0;text-align:start;text-decoration:none;text-decoration-line:none;text-decoration-style:solid;text-decoration-color:#000000;letter-spacing:normal;word-spacing:normal;text-transform:none;direction:ltr;block-progression:tb;writing-mode:lr-tb;baseline-shift:baseline;text-anchor:start;white-space:normal;clip-rule:nonzero;display:inline;overflow:visible;visibility:visible;opacity:1;isolation:auto;mix-blend-mode:normal;color-interpolation:sRGB;color-interpolation-filters:linearRGB;solid-color:#000000;solid-opacity:1;fill:#000000;fill-opacity:1;fill-rule:evenodd;stroke:none;stroke-width:1px;stroke-linecap:butt;stroke-linejoin:miter;stroke-miterlimit:4;stroke-dasharray:none;stroke-dashoffset:0;stroke-opacity:1;color-rendering:auto;image-rendering:auto;shape-rendering:auto;text-rendering:auto;enable-background:accumulate" d="m 20.015376,1036.8359 -0.349595,0.9375 c 0,0 0.08116,0.029 0.08594,0.031 l -0.730439,0.4629 c 0,0 1.763759,2.8011 2.92566,4.1289 0.848708,0.9698 1.755355,2.0126 2.947143,2.7305 0.693285,0.4176 1.496954,0.7476 2.353418,0.8144 0.767646,0.06 1.759139,0.1017 2.531144,-0.5019 0.629005,-0.4913 0.791068,-1.2609 0.880823,-1.8594 0.07682,-0.5122 0.09549,-1.1386 -0.240224,-1.6953 -0.751956,-1.2469 -2.158585,-1.7406 -3.19518,-2.293 -1.697622,-0.9047 -3.532436,-1.3688 -5.220486,-2.0098 -0.66474,-0.2524 -1.988198,-0.7461 -1.988198,-0.7461 z m -0.03711,1.0547 c 0.31018,0.1157 1.118443,0.4149 1.671806,0.625 1.75901,0.6679 3.547104,1.1297 5.103302,1.959 1.122428,0.5982 2.299228,1.0781 2.81043,1.9258 0.1379,0.2287 0.166599,0.6386 0.107418,1.0332 -0.07712,0.5143 -0.249817,1.0153 -0.507792,1.2168 -0.394169,0.3082 -1.130037,0.3486 -1.837814,0.293 -0.645999,-0.05 -1.318446,-0.3139 -1.915936,-0.6739 -1.014242,-0.6109 -1.863757,-1.5633 -2.710824,-2.5312 -0.985923,-1.1267 -2.587607,-3.6397 -2.72059,-3.8477 z"></path><path style="color:#000000;font-style:normal;font-variant:normal;font-weight:normal;font-stretch:normal;font-size:medium;line-height:normal;font-family:sans-serif;text-indent:0;text-align:start;text-decoration:none;text-decoration-line:none;text-decoration-style:solid;text-decoration-color:#000000;letter-spacing:normal;word-spacing:normal;text-transform:none;direction:ltr;block-progression:tb;writing-mode:lr-tb;baseline-shift:baseline;text-anchor:start;white-space:normal;clip-rule:nonzero;display:inline;overflow:visible;visibility:visible;opacity:1;isolation:auto;mix-blend-mode:normal;color-interpolation:sRGB;color-interpolation-filters:linearRGB;solid-color:#000000;solid-opacity:1;fill:#000000;fill-opacity:1;fill-rule:evenodd;stroke:none;stroke-width:1px;stroke-linecap:butt;stroke-linejoin:miter;stroke-miterlimit:4;stroke-dasharray:none;stroke-dashoffset:0;stroke-opacity:1;color-rendering:auto;image-rendering:auto;shape-rendering:auto;text-rendering:auto;enable-background:accumulate" d="m 17.699066,1032.2656 c -0.772152,-0.2089 -1.529152,-0.015 -2.15616,0.1797 -0.537457,0.1669 -1.114389,0.4229 -1.562435,0.8848 -0.459836,0.4741 -0.707412,1.0748 -0.861292,1.6367 -0.164045,0.5989 -0.140342,1.1939 -0.103512,1.7285 0.02386,0.3465 0.09287,0.687 0.199211,1.0137 0.103649,0.3184 0.179529,0.8276 0.605443,1.2285 0.45132,0.4247 1.006308,0.4853 1.382755,0.5762 0.43042,0.1044 0.901556,0.1795 1.390567,0.1367 0.688567,-0.061 1.367684,-0.2558 1.984293,-0.5586 0.451098,-0.2215 0.980231,-0.5032 1.345647,-1.0195 0.442883,-0.6259 0.691667,-1.4055 0.671847,-2.1797 -0.01975,-0.7716 -0.317245,-1.518 -0.769499,-2.1133 -0.516685,-0.6801 -1.249083,-1.276 -2.126865,-1.5137 z m -0.261708,0.9649 c 0.595168,0.1611 1.187417,0.6195 1.593684,1.1543 0.331253,0.436 0.551042,1.0102 0.564429,1.5332 0.01369,0.5348 -0.174592,1.1328 -0.48826,1.5761 -0.189978,0.2685 -0.558536,0.4969 -0.970663,0.6993 -0.507095,0.249 -1.07222,0.4116 -1.630792,0.4609 -0.330914,0.029 -0.696818,-0.022 -1.066362,-0.1113 -0.430161,-0.1041 -0.781337,-0.1908 -0.933555,-0.334 -0.119105,-0.1121 -0.211824,-0.4154 -0.339829,-0.8086 -0.08184,-0.2514 -0.134442,-0.5155 -0.152337,-0.7754 -0.03482,-0.5054 -0.04105,-0.988 0.07031,-1.3945 0.128005,-0.4675 0.33003,-0.9131 0.613256,-1.2051 0.270192,-0.2785 0.692665,-0.4859 1.140578,-0.625 0.573688,-0.1782 1.158068,-0.2894 1.599542,-0.1699 z"></path><path style="color:#000000;font-style:normal;font-variant:normal;font-weight:normal;font-stretch:normal;font-size:medium;line-height:normal;font-family:sans-serif;text-indent:0;text-align:start;text-decoration:none;text-decoration-line:none;text-decoration-style:solid;text-decoration-color:#000000;letter-spacing:normal;word-spacing:normal;text-transform:none;direction:ltr;block-progression:tb;writing-mode:lr-tb;baseline-shift:baseline;text-anchor:start;white-space:normal;clip-rule:nonzero;display:inline;overflow:visible;visibility:visible;opacity:1;isolation:auto;mix-blend-mode:normal;color-interpolation:sRGB;color-interpolation-filters:linearRGB;solid-color:#000000;solid-opacity:1;fill:#000000;fill-opacity:1;fill-rule:evenodd;stroke:none;stroke-width:0.5;stroke-linecap:butt;stroke-linejoin:miter;stroke-miterlimit:4;stroke-dasharray:none;stroke-dashoffset:0;stroke-opacity:1;color-rendering:auto;image-rendering:auto;shape-rendering:auto;text-rendering:auto;enable-background:accumulate" d="m 15.417911,1033.8555 -1.997964,2.3691 0.382796,0.3223 1.997964,-2.3692 -0.382796,-0.3222 z"></path><path style="color:#000000;font-style:normal;font-variant:normal;font-weight:normal;font-stretch:normal;font-size:medium;line-height:normal;font-family:sans-serif;text-indent:0;text-align:start;text-decoration:none;text-decoration-line:none;text-decoration-style:solid;text-decoration-color:#000000;letter-spacing:normal;word-spacing:normal;text-transform:none;direction:ltr;block-progression:tb;writing-mode:lr-tb;baseline-shift:baseline;text-anchor:start;white-space:normal;clip-rule:nonzero;display:inline;overflow:visible;visibility:visible;opacity:1;isolation:auto;mix-blend-mode:normal;color-interpolation:sRGB;color-interpolation-filters:linearRGB;solid-color:#000000;solid-opacity:1;fill:#000000;fill-opacity:1;fill-rule:evenodd;stroke:none;stroke-width:0.5;stroke-linecap:butt;stroke-linejoin:miter;stroke-miterlimit:4;stroke-dasharray:none;stroke-dashoffset:0;stroke-opacity:1;color-rendering:auto;image-rendering:auto;shape-rendering:auto;text-rendering:auto;enable-background:accumulate" d="m 15.777271,1034.7617 -2.169832,2.5801 0.380844,0.3223 2.171784,-2.5801 -0.382796,-0.3223 z"></path><path style="color:#000000;font-style:normal;font-variant:normal;font-weight:normal;font-stretch:normal;font-size:medium;line-height:normal;font-family:sans-serif;text-indent:0;text-align:start;text-decoration:none;text-decoration-line:none;text-decoration-style:solid;text-decoration-color:#000000;letter-spacing:normal;word-spacing:normal;text-transform:none;direction:ltr;block-progression:tb;writing-mode:lr-tb;baseline-shift:baseline;text-anchor:start;white-space:normal;clip-rule:nonzero;display:inline;overflow:visible;visibility:visible;opacity:1;isolation:auto;mix-blend-mode:normal;color-interpolation:sRGB;color-interpolation-filters:linearRGB;solid-color:#000000;solid-opacity:1;fill:#000000;fill-opacity:1;fill-rule:evenodd;stroke:none;stroke-width:0.5;stroke-linecap:butt;stroke-linejoin:miter;stroke-miterlimit:4;stroke-dasharray:none;stroke-dashoffset:0;stroke-opacity:1;color-rendering:auto;image-rendering:auto;shape-rendering:auto;text-rendering:auto;enable-background:accumulate" d="m 16.16788,1035.3789 -2.146396,2.8027 0.396469,0.3047 2.146394,-2.8047 -0.396467,-0.3027 z"></path><path style="color:#000000;font-style:normal;font-variant:normal;font-weight:normal;font-stretch:normal;font-size:medium;line-height:normal;font-family:sans-serif;text-indent:0;text-align:start;text-decoration:none;text-decoration-line:none;text-decoration-style:solid;text-decoration-color:#000000;letter-spacing:normal;word-spacing:normal;text-transform:none;direction:ltr;block-progression:tb;writing-mode:lr-tb;baseline-shift:baseline;text-anchor:start;white-space:normal;clip-rule:nonzero;display:inline;overflow:visible;visibility:visible;opacity:1;isolation:auto;mix-blend-mode:normal;color-interpolation:sRGB;color-interpolation-filters:linearRGB;solid-color:#000000;solid-opacity:1;fill:#000000;fill-opacity:1;fill-rule:evenodd;stroke:none;stroke-width:0.5;stroke-linecap:butt;stroke-linejoin:miter;stroke-miterlimit:4;stroke-dasharray:none;stroke-dashoffset:0;stroke-opacity:1;color-rendering:auto;image-rendering:auto;shape-rendering:auto;text-rendering:auto;enable-background:accumulate" d="m 16.523334,1036.1914 -1.71282,2.3809 0.406233,0.2929 1.71282,-2.3828 -0.406233,-0.291 z"></path><path style="color:#000000;font-style:normal;font-variant:normal;font-weight:normal;font-stretch:normal;font-size:medium;line-height:normal;font-family:sans-serif;text-indent:0;text-align:start;text-decoration:none;text-decoration-line:none;text-decoration-style:solid;text-decoration-color:#000000;letter-spacing:normal;word-spacing:normal;text-transform:none;direction:ltr;block-progression:tb;writing-mode:lr-tb;baseline-shift:baseline;text-anchor:start;white-space:normal;clip-rule:nonzero;display:inline;overflow:visible;visibility:visible;opacity:1;isolation:auto;mix-blend-mode:normal;color-interpolation:sRGB;color-interpolation-filters:linearRGB;solid-color:#000000;solid-opacity:1;fill:#000000;fill-opacity:1;fill-rule:evenodd;stroke:none;stroke-width:0.5;stroke-linecap:butt;stroke-linejoin:miter;stroke-miterlimit:4;stroke-dasharray:none;stroke-dashoffset:0;stroke-opacity:1;color-rendering:auto;image-rendering:auto;shape-rendering:auto;text-rendering:auto;enable-background:accumulate" d="m 17.117059,1036.9121 -1.314399,1.8613 0.408187,0.2871 1.314398,-1.8593 -0.408186,-0.2891 z"></path><path style="color:#000000;font-style:normal;font-variant:normal;font-weight:normal;font-stretch:normal;font-size:medium;line-height:normal;font-family:sans-serif;text-indent:0;text-align:start;text-decoration:none;text-decoration-line:none;text-decoration-style:solid;text-decoration-color:#000000;letter-spacing:normal;word-spacing:normal;text-transform:none;direction:ltr;block-progression:tb;writing-mode:lr-tb;baseline-shift:baseline;text-anchor:start;white-space:normal;clip-rule:nonzero;display:inline;overflow:visible;visibility:visible;opacity:1;isolation:auto;mix-blend-mode:normal;color-interpolation:sRGB;color-interpolation-filters:linearRGB;solid-color:#000000;solid-opacity:1;fill:#000000;fill-opacity:1;fill-rule:evenodd;stroke:none;stroke-width:0.5;stroke-linecap:butt;stroke-linejoin:miter;stroke-miterlimit:4;stroke-dasharray:none;stroke-dashoffset:0;stroke-opacity:1;color-rendering:auto;image-rendering:auto;shape-rendering:auto;text-rendering:auto;enable-background:accumulate" d="m 18.034989,1036.9688 -1.017535,1.7734 0.433575,0.25 1.019489,-1.7734 -0.435529,-0.25 z"></path></g></svg></g></g></svg>